<?xml version="1.0" standalone="no"?>
<!DOCTYPE svg PUBLIC "-//W3C//DTD SVG 20010904//EN"
 "http://www.w3.org/TR/2001/REC-SVG-20010904/DTD/svg10.dtd">
<svg version="1.0" xmlns="http://www.w3.org/2000/svg"
 width="512.000000pt" height="512.000000pt" viewBox="0 0 512.000000 512.000000"
 preserveAspectRatio="xMidYMid meet">
<metadata>
Created by potrace 1.14, written by Peter Selinger 2001-2017
</metadata>
<g transform="translate(0.000000,512.000000) scale(0.100000,-0.100000)"
fill="#000000" stroke="none">
<path d="M821 4785 c-106 -23 -223 -88 -305 -169 -88 -85 -142 -178 -173 -296
l-23 -85 1 -1675 c1 -1859 -4 -1738 69 -1886 64 -127 176 -236 305 -295 138
-62 27 -59 1890 -56 l1700 2 73 27 c201 73 343 217 414 419 l23 64 2 1700 c2
1887 6 1760 -67 1912 -32 66 -58 101 -118 161 -93 93 -156 128 -317 180 -11 4
-783 8 -1715 9 -1416 1 -1706 -1 -1759 -12z m2131 -973 c110 -30 211 -76 303
-138 92 -62 133 -98 202 -182 152 -182 223 -389 218 -629 -3 -137 -5 -151 -37
-258 -75 -257 -271 -482 -520 -599 -68 -31 -223 -74 -293 -80 -28 -3 -170 -5
-317 -5 l-268 -1 0 -183 c0 -144 -4 -194 -16 -233 -30 -87 -81 -146 -165 -190
-47 -25 -64 -29 -139 -28 -68 0 -95 5 -134 24 -62 30 -125 93 -156 155 l-25
50 -3 984 c-3 1091 -5 1050 62 1156 45 69 132 137 210 164 59 20 78 20 531 18
445 -3 474 -4 547 -25z"/>
<path d="M2240 2880 l0 -321 283 3 282 3 54 29 c86 45 136 103 166 195 47 144
-27 311 -170 381 -49 24 -56 25 -332 28 l-283 3 0 -321z"/>
</g>
</svg>
